<svg id="Group_11672" data-name="Group 11672" xmlns="http://www.w3.org/2000/svg" xmlns:xlink="http://www.w3.org/1999/xlink" width="186.506" height="186.506" viewBox="0 0 186.506 186.506">
  <defs>
    <clipPath id="clip-path">
      <rect id="Rectangle_6954" data-name="Rectangle 6954" width="186.506" height="186.506" fill="none"/>
    </clipPath>
    <clipPath id="clip-path-3">
      <rect id="Rectangle_6952" data-name="Rectangle 6952" width="147.431" height="10.163" fill="none"/>
    </clipPath>
  </defs>
  <g id="Group_11677" data-name="Group 11677" clip-path="url(#clip-path)">
    <g id="Group_11676" data-name="Group 11676" transform="translate(0 0)">
      <g id="Group_11675" data-name="Group 11675" clip-path="url(#clip-path)">
        <path id="Path_7285" data-name="Path 7285" d="M0,93.253a93.253,93.253,0,1,1,93.253,93.253A93.253,93.253,0,0,1,0,93.253" transform="translate(0 0)" fill="#fff3dc"/>
        <g id="Group_11674" data-name="Group 11674" transform="translate(21.48 163.282)" opacity="0.15">
          <g id="Group_11673" data-name="Group 11673">
            <g id="Group_11672-2" data-name="Group 11672" clip-path="url(#clip-path-3)">
              <path id="Path_7286" data-name="Path 7286" d="M152.9,46.661c0-2.808-33-5.081-73.716-5.081S5.47,43.854,5.47,46.661s33.006,5.081,73.716,5.081S152.9,49.469,152.9,46.661" transform="translate(-5.47 -41.581)" fill="#0e0c0c"/>
            </g>
          </g>
        </g>
        <path id="Path_7287" data-name="Path 7287" d="M15.987,89.811s13,1.182,20.487,0,24.166-1.445,31.651-6.3S87.434,67.223,94.262,56.451,111.337,27.29,111.337,27.29L60.723,30.161,54.074,43.52,46.193,63.414,33.587,80.225,21.5,88.1Z" transform="translate(46.793 79.876)" fill="#ff9f0e"/>
        <path id="Path_7288" data-name="Path 7288" d="M42.957,31.821s8.8,21.669,11.69,26.134a29.313,29.313,0,0,0,7.661,7.555l-6.55,12.409L41.143,83.511,31.53,79.89,20.762,69.252,13.277,55.484,8.612,45.734l.656-15.225L33.6,29.064Z" transform="translate(25.207 85.068)" fill="#bc7e15"/>
        <path id="Path_7289" data-name="Path 7289" d="M18.209,11.821l-1.249,3.644,1.665-.267.562-.471V12.885Z" transform="translate(49.642 34.599)" fill="#292728"/>
        <path id="Path_7290" data-name="Path 7290" d="M22.815,4.733s-7.846.491-11.294,12.311A142.894,142.894,0,0,0,5.513,60.287c.1,18.421,3.656,41.971,7.638,49.255l2.113-4.669,4.728-90.685Z" transform="translate(16.128 13.853)" fill="#ff9f0e"/>
        <path id="Path_7291" data-name="Path 7291" d="M73.53,7.276,62.9,1.959,49.6,1.272s-9.224.1-13.2,1.009S23.351,9.593,19.464,15.849,10.333,34.761,8.625,43.82,5.605,71.8,7.051,85.19A268.188,268.188,0,0,0,12.568,115l39.4-1.967s3.02.13,2.89-3.943-1.182-4.2-3.02-6.566S46.846,90.971,46.449,82.7s-1.838-24.822,2.364-39.269,5.78-17.074,5.78-17.074l7.548-14.184s5.372-4.4,11.388-4.893" transform="translate(18.824 3.723)" fill="#d3801a"/>
        <path id="Path_7292" data-name="Path 7292" d="M26.767,3.517s-9.7,5.105-8.38,18.9,7.092,45.309,7.092,45.309,2.8,22.1,13.418,29.44c0,0,3.915,4.21,18.5,3.9l-9.853-3.9-9.711-9.739-7.1-31.392-6.04-42.026Z" transform="translate(53.457 10.294)"/>
        <path id="Path_7293" data-name="Path 7293" d="M57.42,2.8H33.5S17.974,2.386,19.234,18.026,27.9,73.8,27.9,73.8s4.057,29.063,24.2,29.338,46.44-2.215,46.44-2.215,14.828-3.043,14.267-14.53-4.473-28.231-4.473-28.231S99.662,19.962,96.025,14.7,87.633,3.905,74.9,2.8Z" transform="translate(56.084 8.197)" fill="#636466"/>
        <path id="Path_7294" data-name="Path 7294" d="M19,27.578s2.077-.939,2.863.569,1.182,6.962,1.182,9.26.33,18.323.33,18.323L17.994,44.04Z" transform="translate(52.667 79.874)" fill="#363636"/>
        <path id="Path_7295" data-name="Path 7295" d="M91.3,7.449S76.88,1.213,46.478,1.213,14.061,2.454,14.061,2.454s24.033-1.673,37.133,5Z" transform="translate(41.156 3.55)" fill="#ff9f0e"/>
        <path id="Path_7296" data-name="Path 7296" d="M56.54,3.112H34.082S19.5,2.719,20.687,17.559s8.141,52.927,8.141,52.927,3.809,27.579,22.721,27.842,43.6-2.1,43.6-2.1,13.921-2.89,13.395-13.791-4.2-26.79-4.2-26.79S96.2,19.4,92.789,14.406,84.908,4.16,72.958,3.112Z" transform="translate(60.349 9.105)" fill="#363636"/>
        <path id="Path_7297" data-name="Path 7297" d="M23.429,29.933l-.255.043a1.248,1.248,0,0,1-1.449-1.013L19.09,14.045A1.254,1.254,0,0,1,20.1,12.6l.255-.043a1.251,1.251,0,0,1,1.449,1.013l2.635,14.918a1.251,1.251,0,0,1-1.013,1.449" transform="translate(55.82 36.683)" fill="#ff9f0e"/>
        <path id="Path_7298" data-name="Path 7298" d="M49.462,6.582S36.715-1.932,22.605,6.075A29.107,29.107,0,0,0,9.733,19.057s24.9-10.261,35.7-6.114a13.012,13.012,0,0,1,4.033-6.362" transform="translate(28.488 7.736)" fill="#bc7e15"/>
        <path id="Path_7299" data-name="Path 7299" d="M7.584,11.54l7.01,4.174s.935,1.08,5.6,1.08S51.625,16,51.625,16s1.355-1.123-.463-3.094c0,0,2.961.467,2.509,5.066s-1.818,11.95-1.818,11.95-1.135,2.1-7.379,1.708-29.283.051-29.283.051a20.9,20.9,0,0,1-5.9-2.6c-2.953-1.912-3.86-.864-3.519-4.54S6.9,13.641,6.9,13.641s-.357-2.717.679-2.1" transform="translate(16.688 33.51)" fill="#363636"/>
        <path id="Path_7300" data-name="Path 7300" d="M29.46,39.865l-10.846.75s-1.378-.153-.919,1.751,6.829.723,6.829.723L28.07,42.7l1.9-2.081Z" transform="translate(51.517 116.682)" fill="#363636"/>
        <path id="Path_7301" data-name="Path 7301" d="M16.636,38.482l8.667-.589s3.68-.789,4.139,1.182-.919,2.56-3.35,2.757-7.222.589-7.222.589-2.564.789-3.22-1.378.986-2.56.986-2.56" transform="translate(45.355 110.454)" fill="#363636"/>
        <path id="Path_7302" data-name="Path 7302" d="M16.193,35.468s-3,.067-2.423,2.56,2.686,2.431,4,2.3,7.752-.589,7.752-.589,2.69.114,2.262-2.011-.884-2.651-3.248-2.588-8.341.33-8.341.33" transform="translate(40.084 102.831)" fill="#363636"/>
        <path id="Path_7303" data-name="Path 7303" d="M14.672,32.308s-3,.067-2.423,2.56,2.686,2.431,4,2.3S24,36.576,24,36.576s2.69.114,2.262-2.011-.884-2.651-3.248-2.588-8.341.33-8.341.33" transform="translate(35.632 93.582)" fill="#363636"/>
        <path id="Path_7304" data-name="Path 7304" d="M9.99,47.818s6.173,19.446,17.864,29.036S46.11,81.974,49.393,79.61s13.132-11.557,19.7-27.975,6.7-19.046,7.618-23.247l6.275-.035-8.9,22.1S66.071,69.1,56.485,78.428s-15.892,8.4-18.912,8.274-21.06-10.65-27.32-29.684l-1.641-4.4Z" transform="translate(25.207 82.984)" fill="#d3801a"/>
        <path id="Path_7305" data-name="Path 7305" d="M12.539,30.14s2.521,6-.365,9.283c0,0,.459,2.56,1.967,3.216s7.226-.063,8.011-.982,3.676-6.962,1.017-11.624Z" transform="translate(35.632 87.907)" fill="#363636"/>
        <path id="Path_7306" data-name="Path 7306" d="M12.267,34.371a9.106,9.106,0,0,0,1.669-3.389c.393-1.842.33-2.3,1.708-2.364s6.436,0,6.436,0,2.56-.263,2.494,1.182S22.9,34.265,22.9,34.265Z" transform="translate(35.905 83.676)" fill="#292728"/>
        <path id="Path_7307" data-name="Path 7307" d="M10.055,28.045S7.3,27.126,7.428,36.711,8.481,56.806,9.266,60.222s4.991,4.335,7.489,4.2c0,0-3.275-9.224-3.142-12.048s-.864-18.814-.864-18.814.785-5.058-2.694-5.517" transform="translate(21.729 82.015)" fill="#363636"/>
        <path id="Path_7308" data-name="Path 7308" d="M48.816,28.667h-.031a1.389,1.389,0,0,1-1.111-.734l-6.35-11.851-.565,5.765a.654.654,0,0,1-.7.6H32.88a1.362,1.362,0,0,1-1.213-.954.69.69,0,0,1,.664-.958h6.534l.781-7.936A.657.657,0,0,1,40.4,12a1.39,1.39,0,0,1,1.052.734l6.071,11.329-.051-7.822a.64.64,0,0,1,.644-.675,1.274,1.274,0,0,1,1.088.6l2.949,4.163H58.59a1.414,1.414,0,0,1,1.241.954.666.666,0,0,1-.632.954H52.114a1.362,1.362,0,0,1-1.056-.593l-1.6-2.266.059,8.616a.655.655,0,0,1-.7.679" transform="translate(92.569 35.109)" fill="#ff9c00"/>
        <path id="Path_7309" data-name="Path 7309" d="M55.247,42.327a1.617,1.617,0,0,1-.774-.291L39.861,30.511a1.051,1.051,0,0,1-.381-1.351.939.939,0,0,1,1.339.02L54.544,40.01c1.406-2.038,5.557-8.184,7.877-12.052,2.439-4.111,1.084-7.4,1.021-7.54a12.156,12.156,0,0,0-4.178-5.808A10.441,10.441,0,0,0,53,12.254h-.008a5.431,5.431,0,0,0-5.046,2.812l-.267.44a.654.654,0,0,1-.581.3,1.271,1.271,0,0,1-.77-.3l-.495-.408a10.868,10.868,0,0,0-6.212-2.82,5.815,5.815,0,0,0-5.113,1.92,6.552,6.552,0,0,0-.95,6.114,14.558,14.558,0,0,0,.758,2.109.722.722,0,0,1-.459,1.1,1.327,1.327,0,0,1-1.3-.793,17.166,17.166,0,0,1-.864-2.435,8.072,8.072,0,0,1,1.194-7.54,7.149,7.149,0,0,1,6.307-2.376,13.167,13.167,0,0,1,7.186,3.067,6.752,6.752,0,0,1,6.012-3.1H52.4A12.923,12.923,0,0,1,60.14,13.26a14.984,14.984,0,0,1,5.129,7.049,10.275,10.275,0,0,1-1.048,8.953C61.4,33.955,55.891,41.97,55.836,42.048a.7.7,0,0,1-.589.279" transform="translate(91.541 30.266)" fill="#fff"/>
        <path id="Path_7310" data-name="Path 7310" d="M26.4,22.775h3.094L28,12.73c-.043-.306-.079-.609-.106-.919l-2.219,2.254a.549.549,0,0,1-.181.118.529.529,0,0,1-.185.035.621.621,0,0,1-.279-.067.655.655,0,0,1-.2-.157l-.672-.793,3.68-3.8h1.437l2.011,13.371h2.831l.216,1.4H26.6Z" transform="translate(70.7 27.524)" fill="#fff"/>
        <path id="Path_7311" data-name="Path 7311" d="M30.937,9.37a5.441,5.441,0,0,1,1.732.279,4.766,4.766,0,0,1,3.2,3.825A4.415,4.415,0,0,1,35.881,15a5.25,5.25,0,0,1-.428,1.343,7.938,7.938,0,0,1-.746,1.241c-.291.4-.6.813-.939,1.233L30.615,22.78A7.589,7.589,0,0,1,31.4,22.6a4.956,4.956,0,0,1,.785-.063h4.822a.708.708,0,0,1,.491.173.725.725,0,0,1,.243.456l.185,1.107H28.306l-.1-.628a1.042,1.042,0,0,1,.016-.4.862.862,0,0,1,.188-.385l3.856-4.74c.318-.4.6-.781.856-1.147a6.693,6.693,0,0,0,.628-1.1,4.618,4.618,0,0,0,.334-1.127,4.1,4.1,0,0,0-.016-1.217,3.417,3.417,0,0,0-.385-1.139A2.713,2.713,0,0,0,32.115,11.1a3.436,3.436,0,0,0-1.029-.157,2.68,2.68,0,0,0-.966.165,2.028,2.028,0,0,0-.738.459,2.189,2.189,0,0,0-.491.691,2.49,2.49,0,0,0-.2.884.678.678,0,0,1-.173.432.539.539,0,0,1-.4.134l-.106,0-.126-.016-.954-.161a5.125,5.125,0,0,1,.263-1.787,3.354,3.354,0,0,1,.809-1.3,3.452,3.452,0,0,1,1.272-.8,4.848,4.848,0,0,1,1.661-.275" transform="translate(78.825 27.425)" fill="#fff"/>
        <path id="Path_7312" data-name="Path 7312" d="M32.323,16.5a.79.79,0,0,1-.145.644.979.979,0,0,1-.785.251H26.818l-.106,3.864a9.774,9.774,0,0,1,2.077-.243,5.936,5.936,0,0,1,2.066.338,5.09,5.09,0,0,1,1.606.939A4.839,4.839,0,0,1,33.568,23.7a5.644,5.644,0,0,1,.569,1.771,4.98,4.98,0,0,1-.086,2.121,3.9,3.9,0,0,1-2.4,2.651,5.517,5.517,0,0,1-2.034.361,6.112,6.112,0,0,1-1.264-.13,7.139,7.139,0,0,1-1.162-.346,7.5,7.5,0,0,1-1.025-.495,6.081,6.081,0,0,1-.868-.585l.444-.781A.484.484,0,0,1,26.189,28a1.073,1.073,0,0,1,.483.157c.188.11.416.228.679.357a6.314,6.314,0,0,0,.923.353,4.01,4.01,0,0,0,1.209.161,3.427,3.427,0,0,0,1.351-.247,2.4,2.4,0,0,0,.942-.7,2.616,2.616,0,0,0,.51-1.1,3.848,3.848,0,0,0,.02-1.429,3.984,3.984,0,0,0-.389-1.245,2.988,2.988,0,0,0-.746-.946,3.367,3.367,0,0,0-1.1-.609,4.537,4.537,0,0,0-1.441-.216,7.051,7.051,0,0,0-1.131.094,6.955,6.955,0,0,0-1.182.3l-1.19-.338L25.31,15.7H32.2Z" transform="translate(73.562 45.947)" fill="#fff"/>
        <path id="Path_7313" data-name="Path 7313" d="M32.764,24.511a4.925,4.925,0,0,1-1.614-.275,4.639,4.639,0,0,1-1.429-.821,4.891,4.891,0,0,1-1.1-1.327,5.254,5.254,0,0,1-.609-1.8,4.365,4.365,0,0,1,.075-1.814A3.656,3.656,0,0,1,28.849,17a3.793,3.793,0,0,1,1.37-.986,4.606,4.606,0,0,1,1.881-.361,5.329,5.329,0,0,1,4.759,2.827,5.991,5.991,0,0,1,.648,1.936,5.881,5.881,0,0,1,.079,1.209,5.618,5.618,0,0,1-.161,1.115,7.771,7.771,0,0,1-.357,1.084c-.149.361-.326.73-.53,1.115l-2.749,5.184a.733.733,0,0,1-.33.314,1.19,1.19,0,0,1-.546.118H31.224l3.542-5.875c.118-.2.228-.385.326-.565s.2-.353.283-.53a3.344,3.344,0,0,1-1.155.687,4.36,4.36,0,0,1-1.457.236M35.729,20.2a3.93,3.93,0,0,0-.42-1.253,3.561,3.561,0,0,0-.762-.95,3.3,3.3,0,0,0-1.013-.6,3.437,3.437,0,0,0-1.209-.212,2.99,2.99,0,0,0-1.19.224,2.159,2.159,0,0,0-1.308,1.547,3.1,3.1,0,0,0-.027,1.194,4.052,4.052,0,0,0,.4,1.249,3.141,3.141,0,0,0,.719.931,2.894,2.894,0,0,0,1,.573,3.675,3.675,0,0,0,1.233.2,2.966,2.966,0,0,0,1.264-.243,2.357,2.357,0,0,0,.852-.64,2.278,2.278,0,0,0,.44-.927,2.8,2.8,0,0,0,.027-1.088" transform="translate(81.8 45.824)" fill="#fff"/>
      </g>
    </g>
  </g>
</svg>
